<svg version="1.2" xmlns="http://www.w3.org/2000/svg" viewBox="0 0 1425 922" width="1425" height="922">
	<title>elia-group-logo-svg (1)-svg</title>
	<style>
		.s0 { fill: #ff7300 } 
	</style>
	<path id="Layer" fill-rule="evenodd" class="s0" d="m3564 269.1l-1754 160-118.2 11.5-658.2 62.4c10.7-26.6 13.1-53 5-77.4-29.4-88.1-181.2-116.7-339.1-64.1-157.9 52.7-262.1 166.9-232.7 255 25.8 77.1 145.3 108.7 280.5 80v66.1c-120.8 23.8-233.1-3.4-290.7-70.7-3.9-2.7-7.5-5.7-10.7-8.9l-208.7 5.8c28.2 93.3 118.2 162.4 263.3 169.9 89.9 4.8 172.4-4.5 247.2-24.7v50c-74.8 20.6-151.5 30.2-224.9 25-169.6-12.3-285.8-107-304-220.1l-46.4 1.4-51.2 4.5c0.6 17.2 2.4 34.3 5.9 51.1 17.5 84.9 100.5 131.2 174 174.8-120.9-35.7-242.3-91.2-264.9-200.3-1.8-8.6-2.9-17.4-3.9-26.1l-746.5 20.3v-2l407.4-58.3 344.6-53.1c43.9-207.9 291.4-432.2 618.2-540.6 314.5-104.4 606.5-69.5 733.9 70.7-138.8-117.3-397.9-145-673.4-53.5-298.8 99.1-526.9 308.6-582.5 513l105.9-15c1.9-33.4 42.6-105.6 82.8-153.4 142.9-170.1 419.9-307.5 660.3-275.2 148.3 19.9 240.7 100.5 269.3 215.7l111-6.2 88.3-4.8 359.5-19.5 1711.6-63.2c0-0.1 41.3-0.1 41.3-0.1zm-2329.7 94.5c-23.3-85.2-93.3-159-220-176-231.3-31-509.8 68.2-666.5 299.3-18 26.7-31.7 53.2-41.6 79.3l110.2-15.8c3.2-11.6 7.8-23.4 13.5-35.4 30.9-85.1 115.3-167.3 231.2-212.9 165.9-65.4 336.4-32.2 394.8 72.8z"/>
</svg>